<mxfile host="app.diagrams.net" modified="2022-03-09T12:23:16.933Z" agent="5.0 (Windows NT 10.0; Win64; x64) AppleWebKit/537.36 (KHTML, like Gecko) Chrome/98.0.4758.102 Safari/537.36" etag="5B1s4Sbf8sjkqpQJ_2Gd" version="16.6.8" type="github">
  <diagram id="b8XWMj94MEjg0ryoiZQe" name="Page-1">
    <mxGraphModel dx="1038" dy="579" grid="1" gridSize="10" guides="1" tooltips="1" connect="1" arrows="1" fold="1" page="1" pageScale="1" pageWidth="1169" pageHeight="827" math="0" shadow="0">
      <root>
        <mxCell id="0" />
        <mxCell id="1" parent="0" />
        <mxCell id="0sP06umZVa7mvwQIkK_N-18" value="" style="shape=datastore;whiteSpace=wrap;html=1;shadow=1;sketch=1;fontFamily=Lucida Console;strokeWidth=1;fillColor=none;gradientColor=none;opacity=90;" vertex="1" parent="1">
          <mxGeometry x="382.5" y="260" width="143" height="130" as="geometry" />
        </mxCell>
        <mxCell id="0sP06umZVa7mvwQIkK_N-41" value="" style="group" vertex="1" connectable="0" parent="1">
          <mxGeometry x="23" y="414" width="840" height="260" as="geometry" />
        </mxCell>
        <mxCell id="0sP06umZVa7mvwQIkK_N-40" value="" style="html=1;dashed=0;whitespace=wrap;shadow=1;sketch=1;fontFamily=Lucida Console;strokeWidth=1;fillColor=none;gradientColor=none;opacity=90;" vertex="1" parent="0sP06umZVa7mvwQIkK_N-41">
          <mxGeometry width="840" height="260" as="geometry" />
        </mxCell>
        <mxCell id="0sP06umZVa7mvwQIkK_N-39" value="" style="shape=image;html=1;verticalAlign=top;verticalLabelPosition=bottom;labelBackgroundColor=#ffffff;imageAspect=0;aspect=fixed;image=https://cdn3.iconfinder.com/data/icons/arrows-set-12/512/reset-128.png;sketch=1;strokeWidth=1;dashed=1;imageBackground=none;" vertex="1" parent="0sP06umZVa7mvwQIkK_N-41">
          <mxGeometry x="367" y="16" width="128" height="128" as="geometry" />
        </mxCell>
        <mxCell id="0sP06umZVa7mvwQIkK_N-32" value="" style="ellipse;shape=doubleEllipse;html=1;dashed=0;whitespace=wrap;aspect=fixed;shadow=1;sketch=1;fontFamily=Lucida Console;fontSize=14;strokeWidth=1;fillColor=none;gradientColor=none;opacity=90;direction=south;" vertex="1" parent="0sP06umZVa7mvwQIkK_N-41">
          <mxGeometry x="31" y="46" width="96" height="96" as="geometry" />
        </mxCell>
        <mxCell id="0sP06umZVa7mvwQIkK_N-33" value="" style="html=1;shadow=0;dashed=0;align=center;verticalAlign=middle;shape=mxgraph.arrows2.arrow;dy=0.67;dx=20;notch=0;sketch=1;fontFamily=Lucida Console;fontSize=14;strokeWidth=1;fillColor=none;gradientColor=none;opacity=90;" vertex="1" parent="0sP06umZVa7mvwQIkK_N-41">
          <mxGeometry x="181" y="44" width="500" height="98" as="geometry" />
        </mxCell>
        <mxCell id="0sP06umZVa7mvwQIkK_N-35" value="Unique Project ID&lt;br&gt;Unique Parceiro ID&lt;br&gt;Unique Camapanha ID&lt;br&gt;Unique Financiador ID" style="text;html=1;strokeColor=none;fillColor=none;align=left;verticalAlign=middle;whiteSpace=wrap;rounded=0;shadow=1;sketch=1;fontFamily=Lucida Console;fontSize=13;opacity=90;" vertex="1" parent="0sP06umZVa7mvwQIkK_N-41">
          <mxGeometry x="7" y="171" width="170" height="30" as="geometry" />
        </mxCell>
        <mxCell id="0sP06umZVa7mvwQIkK_N-34" value="&lt;font style=&quot;font-size: 14px ; background-color: rgb(255 , 255 , 255)&quot;&gt;rastreamento sistêmico&lt;/font&gt;" style="text;strokeColor=none;fillColor=none;html=1;fontSize=24;fontStyle=1;verticalAlign=middle;align=center;shadow=1;sketch=1;fontFamily=Lucida Console;opacity=90;" vertex="1" parent="0sP06umZVa7mvwQIkK_N-41">
          <mxGeometry x="7" y="6" width="200" height="30" as="geometry" />
        </mxCell>
        <mxCell id="0sP06umZVa7mvwQIkK_N-37" value="# Projects&lt;br&gt;# Parceiros&lt;br&gt;# Campanhas&lt;br&gt;# Financiadores&lt;br&gt;# etc." style="text;html=1;strokeColor=none;fillColor=none;align=center;verticalAlign=middle;whiteSpace=wrap;rounded=0;shadow=1;sketch=1;fontFamily=Lucida Console;fontSize=13;opacity=90;" vertex="1" parent="0sP06umZVa7mvwQIkK_N-41">
          <mxGeometry x="346" y="146" width="170" height="100" as="geometry" />
        </mxCell>
        <mxCell id="0sP06umZVa7mvwQIkK_N-38" value="Mudanças sistêmicas" style="text;html=1;strokeColor=none;fillColor=none;align=left;verticalAlign=middle;whiteSpace=wrap;rounded=0;shadow=1;sketch=1;fontFamily=Lucida Console;fontSize=13;opacity=90;" vertex="1" parent="0sP06umZVa7mvwQIkK_N-41">
          <mxGeometry x="627" y="151" width="181" height="20" as="geometry" />
        </mxCell>
        <mxCell id="0sP06umZVa7mvwQIkK_N-42" value="" style="group" vertex="1" connectable="0" parent="1">
          <mxGeometry x="20" y="10" width="840" height="230" as="geometry" />
        </mxCell>
        <mxCell id="0sP06umZVa7mvwQIkK_N-19" value="" style="html=1;dashed=0;whitespace=wrap;shadow=1;sketch=1;fontFamily=Lucida Console;strokeWidth=1;fillColor=none;gradientColor=none;opacity=90;" vertex="1" parent="0sP06umZVa7mvwQIkK_N-42">
          <mxGeometry width="840" height="230" as="geometry" />
        </mxCell>
        <mxCell id="0sP06umZVa7mvwQIkK_N-2" value="" style="shape=actor;whiteSpace=wrap;html=1;sketch=1;" vertex="1" parent="0sP06umZVa7mvwQIkK_N-42">
          <mxGeometry x="60" y="120" width="40" height="60" as="geometry" />
        </mxCell>
        <mxCell id="0sP06umZVa7mvwQIkK_N-6" value="" style="html=1;shadow=1;dashed=0;align=center;verticalAlign=middle;shape=mxgraph.arrows2.arrow;dy=0.6;dx=40;notch=0;sketch=1;" vertex="1" parent="0sP06umZVa7mvwQIkK_N-42">
          <mxGeometry x="130" y="110" width="550" height="90" as="geometry" />
        </mxCell>
        <mxCell id="0sP06umZVa7mvwQIkK_N-8" value="" style="shape=image;html=1;verticalAlign=top;verticalLabelPosition=bottom;labelBackgroundColor=#ffffff;imageAspect=0;aspect=fixed;image=https://cdn3.iconfinder.com/data/icons/arrows-set-12/512/reset-128.png;sketch=1;strokeWidth=1;dashed=1;imageBackground=none;" vertex="1" parent="0sP06umZVa7mvwQIkK_N-42">
          <mxGeometry x="370" y="91" width="128" height="128" as="geometry" />
        </mxCell>
        <mxCell id="0sP06umZVa7mvwQIkK_N-9" value="&lt;font face=&quot;Lucida Console&quot;&gt;Uinque MUVA ID&lt;/font&gt;" style="text;html=1;strokeColor=none;fillColor=none;align=center;verticalAlign=middle;whiteSpace=wrap;rounded=0;shadow=1;dashed=1;sketch=1;" vertex="1" parent="0sP06umZVa7mvwQIkK_N-42">
          <mxGeometry x="25" y="80" width="110" height="30" as="geometry" />
        </mxCell>
        <mxCell id="0sP06umZVa7mvwQIkK_N-10" value="&lt;font face=&quot;Lucida Console&quot;&gt;Ongoing monitoring of participation: Attendance, Transfers, etc.&lt;/font&gt;" style="text;html=1;strokeColor=none;fillColor=none;align=center;verticalAlign=middle;whiteSpace=wrap;rounded=0;shadow=1;dashed=1;sketch=1;gradientColor=none;opacity=90;" vertex="1" parent="0sP06umZVa7mvwQIkK_N-42">
          <mxGeometry x="339" y="20" width="190" height="60" as="geometry" />
        </mxCell>
        <mxCell id="0sP06umZVa7mvwQIkK_N-17" value="&lt;font face=&quot;Lucida Console&quot;&gt;Mudanças pessoais&lt;/font&gt;" style="text;html=1;strokeColor=none;fillColor=none;align=center;verticalAlign=middle;whiteSpace=wrap;rounded=0;shadow=1;dashed=1;sketch=1;gradientColor=none;opacity=90;" vertex="1" parent="0sP06umZVa7mvwQIkK_N-42">
          <mxGeometry x="610" y="40" width="190" height="60" as="geometry" />
        </mxCell>
        <mxCell id="0sP06umZVa7mvwQIkK_N-20" value="&lt;font style=&quot;font-size: 14px&quot;&gt;rastreamento individual&lt;/font&gt;" style="text;strokeColor=none;fillColor=none;html=1;fontSize=24;fontStyle=1;verticalAlign=middle;align=center;shadow=1;sketch=1;fontFamily=Lucida Console;opacity=90;" vertex="1" parent="0sP06umZVa7mvwQIkK_N-42">
          <mxGeometry x="10" width="200" height="30" as="geometry" />
        </mxCell>
        <mxCell id="0sP06umZVa7mvwQIkK_N-43" value="" style="endArrow=classic;html=1;rounded=0;sketch=1;fillStyle=hachure;fontFamily=Lucida Console;fontSize=13;startSize=18;strokeWidth=2;fillColor=none;shape=arrow;" edge="1" parent="1">
          <mxGeometry width="50" height="50" relative="1" as="geometry">
            <mxPoint x="550" y="330" as="sourcePoint" />
            <mxPoint x="620" y="330" as="targetPoint" />
          </mxGeometry>
        </mxCell>
        <mxCell id="0sP06umZVa7mvwQIkK_N-45" value="" style="sketch=0;pointerEvents=1;shadow=0;dashed=0;html=1;strokeColor=none;fillColor=#434445;aspect=fixed;labelPosition=center;verticalLabelPosition=bottom;verticalAlign=top;align=center;outlineConnect=0;shape=mxgraph.vvd.nsx_dashboard;fontFamily=Lucida Console;fontSize=13;opacity=90;" vertex="1" parent="1">
          <mxGeometry x="773.98" y="270" width="86.02" height="80" as="geometry" />
        </mxCell>
        <mxCell id="0sP06umZVa7mvwQIkK_N-46" value="" style="endArrow=classic;html=1;rounded=0;sketch=1;fillStyle=hachure;fontFamily=Lucida Console;fontSize=13;startSize=18;strokeWidth=2;fillColor=none;shape=arrow;exitX=0.75;exitY=1;exitDx=0;exitDy=0;" edge="1" parent="1" source="0sP06umZVa7mvwQIkK_N-2">
          <mxGeometry width="50" height="50" relative="1" as="geometry">
            <mxPoint x="350" y="150" as="sourcePoint" />
            <mxPoint x="380" y="330" as="targetPoint" />
          </mxGeometry>
        </mxCell>
        <mxCell id="0sP06umZVa7mvwQIkK_N-47" value="MEL team enters data&lt;br&gt;of participants, turmas,&lt;br&gt;attendance,etc" style="edgeLabel;html=1;align=center;verticalAlign=middle;resizable=0;points=[];fontSize=13;fontFamily=Lucida Console;labelBorderColor=none;" vertex="1" connectable="0" parent="0sP06umZVa7mvwQIkK_N-46">
          <mxGeometry x="0.2214" y="3" relative="1" as="geometry">
            <mxPoint x="-16" y="-23" as="offset" />
          </mxGeometry>
        </mxCell>
        <mxCell id="0sP06umZVa7mvwQIkK_N-48" value="" style="endArrow=classic;html=1;rounded=0;sketch=1;fillStyle=hachure;fontFamily=Lucida Console;fontSize=13;startSize=18;strokeWidth=2;fillColor=none;shape=arrow;exitX=0.5;exitY=0;exitDx=0;exitDy=0;" edge="1" parent="1" source="0sP06umZVa7mvwQIkK_N-32">
          <mxGeometry width="50" height="50" relative="1" as="geometry">
            <mxPoint x="120" y="200" as="sourcePoint" />
            <mxPoint x="380" y="340" as="targetPoint" />
          </mxGeometry>
        </mxCell>
        <mxCell id="0sP06umZVa7mvwQIkK_N-49" value="PMs enter data of projects,&lt;br&gt;parceiros, campanhas, etc." style="edgeLabel;html=1;align=center;verticalAlign=middle;resizable=0;points=[];fontSize=13;fontFamily=Lucida Console;" vertex="1" connectable="0" parent="0sP06umZVa7mvwQIkK_N-48">
          <mxGeometry x="0.2214" y="3" relative="1" as="geometry">
            <mxPoint x="-44" y="-23" as="offset" />
          </mxGeometry>
        </mxCell>
        <mxCell id="0sP06umZVa7mvwQIkK_N-53" value="" style="endArrow=none;html=1;rounded=0;sketch=1;fillStyle=hachure;fontFamily=Lucida Console;fontSize=13;startSize=18;strokeWidth=1;fillColor=none;shape=arrow;" edge="1" parent="1" source="0sP06umZVa7mvwQIkK_N-45" target="0sP06umZVa7mvwQIkK_N-8">
          <mxGeometry relative="1" as="geometry">
            <mxPoint x="500" y="270" as="sourcePoint" />
            <mxPoint x="660" y="270" as="targetPoint" />
          </mxGeometry>
        </mxCell>
        <mxCell id="0sP06umZVa7mvwQIkK_N-54" value="1" style="resizable=0;html=1;align=right;verticalAlign=bottom;shadow=1;labelBackgroundColor=#FFFFFF;labelBorderColor=none;sketch=1;fontFamily=Lucida Console;fontSize=13;strokeWidth=1;fillColor=none;gradientColor=none;opacity=90;" connectable="0" vertex="1" parent="0sP06umZVa7mvwQIkK_N-53">
          <mxGeometry x="1" relative="1" as="geometry" />
        </mxCell>
        <mxCell id="0sP06umZVa7mvwQIkK_N-55" value="" style="endArrow=none;html=1;rounded=0;sketch=1;fillStyle=hachure;fontFamily=Lucida Console;fontSize=13;startSize=18;strokeWidth=1;fillColor=none;shape=arrow;exitX=0.465;exitY=1.063;exitDx=0;exitDy=0;exitPerimeter=0;strokeColor=default;" edge="1" parent="1" source="0sP06umZVa7mvwQIkK_N-45" target="0sP06umZVa7mvwQIkK_N-39">
          <mxGeometry relative="1" as="geometry">
            <mxPoint x="680" y="380" as="sourcePoint" />
            <mxPoint x="528" y="219.71420461988555" as="targetPoint" />
          </mxGeometry>
        </mxCell>
        <mxCell id="0sP06umZVa7mvwQIkK_N-56" value="1" style="resizable=0;html=1;align=right;verticalAlign=bottom;shadow=1;labelBackgroundColor=#FFFFFF;labelBorderColor=none;sketch=1;fontFamily=Lucida Console;fontSize=13;strokeWidth=1;fillColor=none;gradientColor=none;opacity=90;" connectable="0" vertex="1" parent="0sP06umZVa7mvwQIkK_N-55">
          <mxGeometry x="1" relative="1" as="geometry" />
        </mxCell>
      </root>
    </mxGraphModel>
  </diagram>
</mxfile>
